<svg version="1.1" id="Layer_1" xmlns="http://www.w3.org/2000/svg" xmlns:xlink="http://www.w3.org/1999/xlink" x="0px" y="0px" viewBox="0 0 629 612" style="enable-background:new 0 0 629 612;" xml:space="preserve">
<style type="text/css">
	.st0{fill:#FF8526;}
	.st1{fill:#ED2525;}
	.st2{fill:#008060;}
	.st3{fill:none;}
</style>
<g>
	<path class="st0" d="M449.79,38.69H112.36V172.6h178.08C330.15,114.65,385.22,68.05,449.79,38.69z"></path>
	<g>
		<path class="st1" d="M393.04,306.33c20.59-59.26,64.76-107.49,121.28-133.45V38.47c-127.9,35.15-227.69,138.15-258.29,267.86
			H393.04z"></path>
	</g>
	<path class="st2" d="M372.01,326.43l-21.49,94.35h-31.71l-21.49-94.35h26.07l11.28,63.74l11.28-63.74H372.01z M489.52,326.59
		c-8.99,0-14.03,2.02-19.23,5.34v-5.32h-28.52v94.31h28.51V356.7c0-3.92,3.21-7.12,7.13-7.12h1.24c3.92,0,7.12,3.2,7.12,7.12v64.21
		h28.5v-64.87C514.27,335.93,505.16,326.59,489.52,326.59 M112.3,420.91h53.1v-20.28h-24.59v-19.37h24.59v-17.69h-24.59v-16.01
		h24.59v-21h-53.1V420.91z M236.62,420.91h53.1v-20.28h-24.59v-19.37h24.59v-17.69h-24.59v-16.01h24.59v-21h-53.1V420.91z
		 M379.61,420.91h53.1v-20.28h-24.59v-19.37h24.59v-17.69h-24.59v-16.01h24.59v-21h-53.1V420.91z M202.97,326.57h-28.51v94.35h53.1
		v-20.27h-24.59V326.57z"></path>
	<rect x="-153.3" y="-95" class="st3" width="934.6" height="802"></rect>
	<polygon class="st1" points="246.52,440.39 246.27,574.09 380.15,574.09 380.31,440.39 	"></polygon>
</g>
</svg>