<svg xmlns="http://www.w3.org/2000/svg" width="122" height="122.43975" viewBox="0 0 122 122.43975">
  <title>Ampol_Primary_Logo_FullColour_RGB_2</title>
  <g>
    <path d="M111.6532,116.46362v-13.0585h-6.58181v18.42917h16.9284v-5.37067Zm-20.9039.63168c-3.02751,0-4.94947-1.86928-4.94947-4.52827,0-2.63255,1.922-4.42292,4.94947-4.42292,3.00129,0,4.92325,1.79037,4.92325,4.42292,0,2.659-1.922,4.52827-4.92325,4.52827m0,5.34445c7.3453,0,12.00516-4.42292,12.00516-9.92518,0-5.60783-4.65986-9.7149-11.97893-9.7149-7.39776,0-12.03139,4.10707-12.03139,9.7149,0,5.47581,4.63363,9.92518,12.00516,9.92518m-23.51-9.58311H63.81682V107.9334h3.791c1.89573,0,2.94883.92152,2.94883,2.42228,0,1.55344-1.15846,2.501-3.31735,2.501m2.73812-9.47774H57.235v18.45539h6.58181v-4.79144h5.13373c5.5287,0,8.34574-2.86971,8.34574-6.87143,0-4.0544-2.44829-6.79252-7.31886-6.79252M54.28661,121.83429l-1.79037-18.42917H42.70266l-2.92239,10.13611-2.817-10.13611H27.06429l-1.79037,18.42917h6.50291l.9213-12.61085,3.50162,12.61085h6.608l3.73855-12.68975,1.07933,12.68975ZM11.8209,114.884l4.02817-6.52913V114.884Zm.63191-11.47883L0,121.83429H7.556L9.39884,118.833h6.45023v3.00129h6.47646V103.40512Z" fill="#ed0c06"/>
    <rect x="104.02566" width="17.97434" height="85.43019" fill="#18249c"/>
    <polygon points="46.293 85.431 104.026 0 82.332 0 24.6 85.431 46.293 85.431" fill="#ed0c06"/>
  </g>
</svg>
