<svg xmlns="http://www.w3.org/2000/svg" width="296.89" height="188.14" viewBox="0 0 296.89 188.14"><path d="M568.38,264.3H472.81v24.29h70.76a48.62,48.62,0,1,1-9.14-42.51h28.35a72.91,72.91,0,1,0,6.61,30.36,73.66,73.66,0,0,0-1-12.14" transform="translate(-272.5 -203.57)" fill="#8dc63f"/><path d="M417.44,288.59a72.78,72.78,0,1,0-5.59,18.22H383.5a48.57,48.57,0,1,1,9.14-42.51H319v24.29h98.47Z" transform="translate(-272.5 -203.57)" fill="#8dc63f"/><path d="M568.18,264.3H472.61v24.29h70.76a48.62,48.62,0,1,1-9.14-42.51h28.35a72.91,72.91,0,1,0,6.61,30.36,73.66,73.66,0,0,0-1-12.14" transform="translate(-272.5 -203.57)" fill="#8dc63f"/><path d="M417.24,288.59a72.78,72.78,0,1,0-5.59,18.22H383.29a48.56,48.56,0,1,1,9.15-42.51H318.77v24.29h98.47Z" transform="translate(-272.5 -203.57)" fill="#8dc63f"/><path d="M318.77,288.59" transform="translate(-272.5 -203.57)" fill="none"/><path d="M383.29,306.82" transform="translate(-272.5 -203.57)" fill="none"/><path d="M297.11,367.55" transform="translate(-272.5 -203.57)" fill="none"/><path d="M344.31,349.32" transform="translate(-272.5 -203.57)" fill="none"/><path d="M297.11,367.55" transform="translate(-272.5 -203.57)" fill="none"/><rect x="24.61" y="163.85" width="246.74" height="24.29" fill="#1c75bc"/><path d="M297.11,391.71" transform="translate(-272.5 -203.57)" fill="none" stroke="#a7a9ac" stroke-miterlimit="10" stroke-width="0.5" stroke-dasharray="4 4 4 4 4 4"/><path d="M346.13,203.57" transform="translate(-272.5 -203.57)" fill="none" stroke="#a7a9ac" stroke-miterlimit="10" stroke-width="0.5" stroke-dasharray="4 4 4 4 4 4"/><path d="M272.7,278" transform="translate(-272.5 -203.57)" fill="none"/></svg>