<svg xmlns="http://www.w3.org/2000/svg" xmlns:xlink="http://www.w3.org/1999/xlink" width="155.579" height="61.67" viewBox="0 0 155.579 61.67">
  <defs>
    <clipPath id="clip-path">
      <rect id="Rectangle_1" data-name="Rectangle 1" width="155.579" height="61.67" fill="#FF4500"/>
    </clipPath>
  </defs>
  <g id="hope-logo" transform="translate(0 0)">
    <path id="Path_1" data-name="Path 1" d="M30.9,0V19.161H8.318V0H0V46.092H8.318V26.668H30.9V46.092h8.317V0Z" transform="translate(0)" fill="#FF4500"/>
    <g id="Group_2" data-name="Group 2" transform="translate(0 0)">
      <g id="Group_1" data-name="Group 1" clip-path="url(#clip-path)">
        <path id="Path_2" data-name="Path 2" d="M724.992,84.335V84.2c0-9.943,7.046-18.107,16.989-18.107,11.063,0,16.66,8.691,16.66,18.7,0,.725-.067,1.449-.132,2.239H732.961c.855,5.663,4.873,8.823,10.008,8.823,3.885,0,6.651-1.448,9.417-4.148l4.674,4.148a17.584,17.584,0,0,1-14.223,6.52c-10.074,0-17.845-7.31-17.845-18.042m25.746-2.569c-.526-5.135-3.556-9.152-8.823-9.152-4.873,0-8.3,3.753-9.021,9.152Z" transform="translate(-603.062 -54.98)" fill="#FF4500"/>
        <path id="Path_3" data-name="Path 3" d="M314.381,65.165c-10.606,0-14.541,6.755-19.347,12.394L283.466,91.124a10.1,10.1,0,0,1-7.819,3.446c-6.192,0-10.606-5.136-10.606-11.195v-.134c0-6.053,4.086-11.06,10.471-11.06,5.777,0,9.548,4.351,9.2,11.008l7.572-8.834-2.354-2.749-.016-.008a18.471,18.471,0,0,0-14.267-6.4,18.18,18.18,0,0,0-18.572,18.177v.134c0,9.876,7.839,17.972,18.438,17.972,10.272,0,14.48-6.416,19.435-12.4l10.967-12.8c.591-.7,1.344-1.515,1.344-1.515a10.115,10.115,0,0,1,6.987-2.62c6.258,0,10.67,5.071,10.67,11.194v.135c0,5.989-4.086,11.06-10.535,11.06-5.957,0-9.755-4.511-10.475-9.495l-6.223,7.265,1.338,1.716a18.839,18.839,0,0,0,15.225,7.425c10.735,0,18.637-8.23,18.637-18.106v-.134c0-9.94-7.838-18.041-18.5-18.041" transform="translate(-213.84 -54.205)" fill="#FF4500"/>
        <path id="Path_4" data-name="Path 4" d="M490.342,255.978V274.6h7.934V262.181a22.256,22.256,0,0,1-7.934-6.2" transform="translate(-407.875 -212.927)" fill="#FF4500"/>
        <path id="Path_5" data-name="Path 5" d="M498.276,47.159v-1.32h-7.934v7.48h.033a22.25,22.25,0,0,1,7.9-6.16" transform="translate(-407.875 -38.13)" fill="#FF4500"/>
      </g>
    </g>
  </g>
</svg>
