<svg xmlns="http://www.w3.org/2000/svg" xmlns:xlink="http://www.w3.org/1999/xlink" viewBox="0 0 413.48 377.55" class="w-[90px] h-[90px] text-tangerine-500"><path fill="currentColor" d="M59.04,296.87c-0.91-2.49-1.41-5.22-1.41-8.04c0-3.07,0.5-5.97,1.49-8.71  c5.14-14.26,21.23-24.04,60.19-24.04c33.91,0,54.55,8.04,57.46,23.38h-41.12c-2.32-3.07-8.29-5.14-16.33-5.14  c-10.12,0-17.41,3.15-19.73,9.7c-0.58,1.49-0.83,3.07-0.83,4.89c0,1.99,0.33,3.81,0.91,5.47c2.4,6.47,9.29,9.62,17.58,9.62  c8.95,0,14.43-3.23,15.75-5.89h-17.91v-14.1h57.04v33h-35.82l5.47-14.01h-2.16c-4.98,8.62-12.85,16.91-35.49,16.91  C76.78,319.92,64.01,310.71,59.04,296.87 M223.21,292.06c-0.5-1.24-0.75-2.57-0.75-4.06c0-1.49,0.25-2.82,0.75-4.06  c2.4-6.13,10.45-9.62,20.48-9.62c10.03,0,17.99,3.48,20.48,9.62c0.5,1.24,0.75,2.57,0.75,4.06c0,1.49-0.25,2.82-0.75,4.06  c-2.49,6.14-10.45,9.62-20.48,9.62C233.65,301.68,225.69,298.19,223.21,292.06 M182.91,297.53c6.13,16.08,27.77,22.39,60.77,22.39  s54.64-6.3,60.77-22.39c1.08-2.82,1.57-6.05,1.57-9.53c0-3.48-0.58-6.72-1.57-9.54c-5.72-16.17-27.78-22.39-60.77-22.39  s-54.97,6.22-60.77,22.39c-1.08,2.82-1.58,6.05-1.58,9.54C181.34,291.48,181.83,294.71,182.91,297.53 M355.85,96.33l-89.9-38.7  l-89.9,38.7h46.79v72.39c0,0.01,0,0.02,0,0.03v19.31c0,7.84-1.55,14.41-4.64,19.7c-3.09,5.3-7.56,9.28-13.41,11.97  c-5.85,2.68-12.55,4.02-20.11,4.02c-7.84,0-14.61-1.41-20.32-4.23c-5.71-2.82-10.21-6.88-13.51-12.17  c-3.3-5.29-4.95-11.72-4.95-19.29v-19.31c0-0.01,0-0.02,0-0.03V96.31H59.46v74.26c0,15.4,4.57,28.64,13.72,39.71  c9.14,11.07,23.07,19.6,41.77,25.58c18.7,5.98,41.94,8.97,69.72,8.97c27.36,0,50.36-2.96,69-8.87  c18.63-5.91,32.52-14.47,41.67-25.68c9.14-11.21,13.72-24.44,13.72-39.71V96.33H355.85z"></path></svg>